<?xml version="1.0" encoding="UTF-8" standalone="no"?>
<svg
   xmlns:dc="http://purl.org/dc/elements/1.1/"
   xmlns:cc="http://creativecommons.org/ns#"
   xmlns:rdf="http://www.w3.org/1999/02/22-rdf-syntax-ns#"
   xmlns:svg="http://www.w3.org/2000/svg"
   xmlns="http://www.w3.org/2000/svg"
   viewBox="0 0 700.66669 140.49333"
   height="140.49333"
   width="700.66669"
   xml:space="preserve"
   id="svg2"
   version="1.1"><metadata
     id="metadata8"><rdf:RDF><cc:Work
         rdf:about=""><dc:format>image/svg+xml</dc:format><dc:type
           rdf:resource="http://purl.org/dc/dcmitype/StillImage" /></cc:Work></rdf:RDF></metadata><defs
     id="defs6" /><g
     transform="matrix(1.3333333,0,0,-1.3333333,0,140.49333)"
     id="g10"><g
       transform="scale(0.1)"
       id="g12"><path
         id="path14"
         style="fill:#94d336;fill-opacity:1;fill-rule:nonzero;stroke:none"
         d="M 1513.49,684.133 V 567.297 h 280.76 V 449.598 H 1513.49 V 331.086 h 320.26 V 213.387 h -469.89 v 588.437 h 460.65 V 684.133 h -311.02" /><path
         id="path16"
         style="fill:#94d336;fill-opacity:1;fill-rule:nonzero;stroke:none"
         d="m 2158.22,444.559 -78.18,-86.582 v -144.59 h -149.62 v 588.437 h 149.62 V 547.117 l 225.29,254.707 h 173.16 L 2259.93,558.035 2492.78,213.387 h -179.05 l -155.51,231.172" /><path
         id="path18"
         style="fill:#94d336;fill-opacity:1;fill-rule:nonzero;stroke:none"
         d="m 2655.85,507.605 c 0,-99.199 76.51,-175.679 166.45,-175.679 90.78,0 163.09,76.48 163.09,175.679 0,99.2 -72.31,174.004 -163.09,174.004 -90.78,0 -166.45,-74.804 -166.45,-174.004 z m 483.36,0.84 c 0,-171.48 -136.19,-301.773 -318.59,-301.773 -181.56,0 -317.75,129.449 -317.75,301.773 0,171.485 136.19,298.418 317.75,298.418 182.4,0 318.59,-127.769 318.59,-298.418" /><path
         id="path20"
         style="fill:#a5a6a7;fill-opacity:1;fill-rule:nonzero;stroke:none"
         d="m 3825.97,717.762 -40.35,-51.289 c -45.39,46.23 -109.28,73.988 -174,73.988 -132.84,0 -239.59,-102.563 -239.59,-232.016 0,-128.609 106.75,-232.011 239.59,-232.011 64.72,0 127.77,26.894 174,70.609 l 41.19,-46.234 c -58.01,-54.629 -137.03,-90.782 -218.57,-90.782 -169.79,0 -304.3,131.977 -304.3,298.418 0,164.77 136.19,295.063 306.84,295.063 80.68,0 158.86,-32.793 215.19,-85.746" /><path
         id="path22"
         style="fill:#a5a6a7;fill-opacity:1;fill-rule:nonzero;stroke:none"
         d="M 4015.09,737.098 V 543.762 h 296.74 V 479.031 H 4015.09 V 277.273 h 342.97 v -63.886 h -410.21 v 588.437 h 399.27 v -64.726 h -332.03" /><path
         id="path24"
         style="fill:#a5a6a7;fill-opacity:1;fill-rule:nonzero;stroke:none"
         d="m 4820.39,277.273 v -63.886 h -325.34 v 588.437 h 67.27 V 277.273 h 258.07" /><path
         id="path26"
         style="fill:#a5a6a7;fill-opacity:1;fill-rule:nonzero;stroke:none"
         d="m 5254.98,277.273 v -63.886 h -325.34 v 588.437 h 67.27 V 277.273 h 258.07" /><path
         id="path28"
         style="fill:#94d336;fill-opacity:1;fill-rule:nonzero;stroke:none"
         d="M 567.242,1053.74 1123.39,531.711 H 990.254 V 232.02 H 448.629 L 447.965,401.219 277.5,401.18 278.113,232.02 H 143.617 V 527.117 H 0 l 567.242,526.623" /><path
         id="path30"
         style="fill:#ffffff;fill-opacity:1;fill-rule:nonzero;stroke:none"
         d="m 41.5156,309.543 c 0,0 49.4219,-46.582 129.8904,-44.406 144.114,3.933 274.883,129.375 488.789,142.664 213.922,13.332 404.685,-186.09 404.685,-186.09 0,0 -206.583,-203.8321 -511.97,-201.4493 C 247.52,22.6992 41.5156,309.543 41.5156,309.543" /><path
         id="path32"
         style="fill:#ffffff;fill-opacity:1;fill-rule:nonzero;stroke:none"
         d="m 942.793,239.559 -2.555,-4.911 c 0,0 -92.527,24.403 -167.84,16.739 -81.285,-8.293 -174.589,-29.317 -261.875,-42.09 -110.156,-16.121 -206.757,9.637 -206.757,9.637 0,0 75.593,-16.825 201.293,-0.567 84.492,10.949 184.171,48.012 273.023,50.442 68.258,1.855 164.711,-29.25 164.711,-29.25" /><path
         id="path34"
         style="fill:#a5a6a7;fill-opacity:1;fill-rule:nonzero;stroke:none"
         d="m 46.8398,286.277 c 0,0 48.918,-46.109 128.5432,-43.941 142.613,3.883 272.019,128.016 483.672,141.172 211.675,13.18 400.455,-184.153 400.455,-184.153 0,0 -204.408,-201.69484 -506.612,-199.3354687 C 250.703,2.42188 46.8398,286.277 46.8398,286.277" /><path
         id="path36"
         style="fill:#ffffff;fill-opacity:1;fill-rule:nonzero;stroke:none"
         d="M 598.219,241.121 C 346.977,179.07 257.063,194.824 257.063,194.824 c 0,0 122.003,-20.547 333.691,27.821 159.961,36.554 311.023,-18.27 311.023,-18.27 l 3.453,9.609 c 0,0 -163.906,62.489 -307.011,27.137" /></g></g></svg>